<?xml version="1.0" encoding="UTF-8" standalone="no"?>
<svg width="386px" height="386px" viewBox="0 0 386 386" version="1.1" xmlns="http://www.w3.org/2000/svg" xmlns:xlink="http://www.w3.org/1999/xlink">
    <!-- Generator: Sketch 39.1 (31720) - http://www.bohemiancoding.com/sketch -->
    <title>Shape</title>
    <desc>Created with Sketch.</desc>
    <defs></defs>
    <g id="Page-1" stroke="none" stroke-width="1" fill="none" fill-rule="evenodd">
        <g id="close" fill="#FFFFFF">
            <path d="M374.5,323.6 L243.9,193 L374.5,62.4 C388.6,48.3 388.6,25.6 374.5,11.5 C360.4,-2.6 337.7,-2.6 323.6,11.5 L193,142.1 L62.4,11.5 C48.3,-2.6 25.6,-2.6 11.5,11.5 C-2.6,25.6 -2.6,48.3 11.5,62.4 L142.1,193 L11.5,323.6 C-2.6,337.7 -2.6,360.4 11.5,374.5 C25.6,388.6 48.3,388.6 62.4,374.5 L193,243.9 L323.6,374.5 C337.7,388.6 360.4,388.6 374.5,374.5 C388.5,360.4 388.5,337.6 374.5,323.6 L374.5,323.6 Z" id="Shape"></path>
        </g>
    </g>
</svg>