<?xml version="1.0" encoding="utf-8"?>
<!-- Generator: Adobe Illustrator 20.0.0, SVG Export Plug-In . SVG Version: 6.00 Build 0)  -->
<svg version="1.1" id="Layer_1" xmlns="http://www.w3.org/2000/svg" xmlns:xlink="http://www.w3.org/1999/xlink" x="0px" y="0px"
	 viewBox="0 0 229.8 40.9" enable-background="new 0 0 229.8 40.9" xml:space="preserve">
<g>
	<path fill="#C7922C" d="M14.2,6.5c-2.8,0-5-0.4-6.6-1c-2.1,1.9-3.8,4.2-5,6.8c0.1,0,0.2,0.1,0.3,0.1C5.8,9.2,9.7,7,14.2,6.5z"/>
	<g>
		<path fill="none" d="M18.7,15.7c-0.1,0-0.2,0-0.3,0c-6.7,0-12.2-1-16.3-2.1C1.4,15.6,1,17.9,1,20.3c0,0.3,0,0.5,0,0.8
			c2.4,1.9,5.8,4.2,9.6,4.9c7.3,1.5,12.5-0.1,17.4-5.2c1.6-1.6,3.3-3,5-4.1c-0.9-1.9-2.1-3.6-3.6-5.1c-0.6,0.4-1.2,0.8-1.8,1.2
			C25.5,14.3,23.6,15.6,18.7,15.7z"/>
		<path fill="none" d="M32.3,29.2c-1.7,2.5-4.5,6.1-10.5,8.6C19.9,38.6,18,39,16.3,39c-1.2,0-2.4-0.2-3.6-0.5
			c2.5,1.1,5.2,1.7,8.1,1.7c2.2,0,4.4-0.4,6.4-1c4-2.9,6.8-7.5,7.4-12.7C33.8,27.3,32.9,28.2,32.3,29.2z"/>
		<path fill="none" d="M15.5,27.8c-1.8,0-3.5-0.3-5.1-0.6c-3.6-0.7-6.8-2.6-9.2-4.4c0.5,4.1,2.3,7.8,4.9,10.7
			c3.4,2.8,9,5.7,15.2,3.1c5-2.1,6.8-4.1,9.4-7.4c1.5-1.9,2.8-3.3,4-4.5c0-0.1,0-0.2,0-0.3c0-2.3-0.4-4.5-1.2-6.6
			c-1.6,1-3.2,2.3-4.6,3.8C24.3,26.5,19.6,27.8,15.5,27.8z"/>
		<path fill="#998270" d="M34.7,24.8c3.1-2.9,5.2-3.4,6.1-3.7c0-0.3,0-0.5,0-0.8c0-1.9-0.3-3.7-0.8-5.4c-2.1,0.6-4.4,1.6-6.6,3
			c0.8,2,1.2,4.3,1.2,6.6C34.7,24.6,34.7,24.7,34.7,24.8z"/>
		<path fill="#AC6828" d="M39.7,13.7c-0.6-1.7-1.4-3.4-2.5-4.8c-2.1,0.5-4.3,1.1-5.9,1.8c-0.7,0.3-1.3,0.6-1.9,1
			c1.5,1.5,2.7,3.2,3.6,5.1C35.2,15.3,37.5,14.4,39.7,13.7z"/>
		<path fill="#C7922C" d="M36.4,7.8C34.9,5.9,33,4.4,31,3.2c-2.5,1-6,2-11,2.8c-0.9,0.2-1.8,0.3-2.7,0.3c4.2,0.2,8.1,1.8,11.1,4.4
			c0.7-0.4,1.5-0.9,2.4-1.2C32.4,8.8,34.4,8.2,36.4,7.8z"/>
		<path fill="#ECC550" d="M19.7,4.7c4.2-0.7,7.4-1.6,9.7-2.4c-2.6-1.2-5.5-2-8.6-2c-4.6,0-8.7,1.5-12.1,4.1
			C11.2,5.1,14.8,5.5,19.7,4.7z"/>
		<path fill="#6C5A4D" d="M27.3,39.2c7.2-2.4,12.6-8.9,13.4-16.7c-0.8,0.2-3.6,1.7-6.1,4C34,31.7,31.3,36.3,27.3,39.2z"/>
	</g>
	<linearGradient id="SVGID_1_" gradientUnits="userSpaceOnUse" x1="32.8698" y1="36.0775" x2="14.6717" y2="4.5573">
		<stop  offset="0" style="stop-color:#FFFFFF;stop-opacity:0.7"/>
		<stop  offset="1" style="stop-color:#FFFFFF;stop-opacity:0"/>
	</linearGradient>
	<path fill="url(#SVGID_1_)" d="M17.3,6.3c-0.2,0-0.5,0-0.7,0c-0.8,0-1.6,0.1-2.3,0.2c0.1,0,0.1,0,0.2,0C15.3,6.5,16.2,6.4,17.3,6.3
		z"/>
	<path fill="#998270" d="M15.5,27.8c-1.8,0-3.5-0.3-5.1-0.6c-3.6-0.7-6.8-2.6-9.2-4.4c0.5,4.1,2.3,7.8,4.9,10.7
		c3.4,2.8,9,5.7,15.2,3.1c5-2.1,6.8-4.1,9.4-7.4c1.5-1.9,2.8-3.3,4-4.5c0-0.1,0-0.2,0-0.3c0-2.3-0.4-4.5-1.2-6.6
		c-1.6,1-3.2,2.3-4.6,3.8C24.3,26.5,19.6,27.8,15.5,27.8z"/>
	<linearGradient id="SVGID_2_" gradientUnits="userSpaceOnUse" x1="27.3375" y1="39.2716" x2="9.1393" y2="7.7515">
		<stop  offset="0" style="stop-color:#FFFFFF;stop-opacity:0.7"/>
		<stop  offset="1" style="stop-color:#FFFFFF;stop-opacity:0"/>
	</linearGradient>
	<path fill="url(#SVGID_2_)" d="M15.5,27.8c-1.8,0-3.5-0.3-5.1-0.6c-3.6-0.7-6.8-2.6-9.2-4.4c0.5,4.1,2.3,7.8,4.9,10.7
		c3.4,2.8,9,5.7,15.2,3.1c5-2.1,6.8-4.1,9.4-7.4c1.5-1.9,2.8-3.3,4-4.5c0-0.1,0-0.2,0-0.3c0-2.3-0.4-4.5-1.2-6.6
		c-1.6,1-3.2,2.3-4.6,3.8C24.3,26.5,19.6,27.8,15.5,27.8z"/>
	<path fill="#AC6828" d="M18.7,15.7c-0.1,0-0.2,0-0.3,0c-6.7,0-12.2-1-16.3-2.1C1.4,15.6,1,17.9,1,20.3c0,0.3,0,0.5,0,0.8
		c2.4,1.9,5.8,4.2,9.6,4.9c7.3,1.5,12.5-0.1,17.4-5.2c1.6-1.6,3.3-3,5-4.1c-0.9-1.9-2.1-3.6-3.6-5.1c-0.6,0.4-1.2,0.8-1.8,1.2
		C25.5,14.3,23.6,15.6,18.7,15.7z"/>
	<linearGradient id="SVGID_3_" gradientUnits="userSpaceOnUse" x1="28.4286" y1="38.6417" x2="10.2304" y2="7.1215">
		<stop  offset="0" style="stop-color:#FFFFFF;stop-opacity:0.7"/>
		<stop  offset="1" style="stop-color:#FFFFFF;stop-opacity:0"/>
	</linearGradient>
	<path fill="url(#SVGID_3_)" d="M18.7,15.7c-0.1,0-0.2,0-0.3,0c-6.7,0-12.2-1-16.3-2.1C1.4,15.6,1,17.9,1,20.3c0,0.3,0,0.5,0,0.8
		c2.4,1.9,5.8,4.2,9.6,4.9c7.3,1.5,12.5-0.1,17.4-5.2c1.6-1.6,3.3-3,5-4.1c-0.9-1.9-2.1-3.6-3.6-5.1c-0.6,0.4-1.2,0.8-1.8,1.2
		C25.5,14.3,23.6,15.6,18.7,15.7z"/>
	<path fill="#C7922C" d="M18.7,14.4c4.4,0,6.1-1.2,8.1-2.6c0.5-0.3,1-0.7,1.5-1.1c-3-2.6-6.9-4.2-11.1-4.4c-1,0.1-2,0.1-2.9,0.1
		c-0.1,0-0.1,0-0.2,0C9.7,7,5.8,9.2,2.9,12.4c3.9,1.1,9.2,2,15.5,2C18.5,14.4,18.6,14.4,18.7,14.4z"/>
	<linearGradient id="SVGID_4_" gradientUnits="userSpaceOnUse" x1="30.5792" y1="37.4" x2="12.381" y2="5.8798">
		<stop  offset="0" style="stop-color:#FFFFFF;stop-opacity:0.7"/>
		<stop  offset="1" style="stop-color:#FFFFFF;stop-opacity:0"/>
	</linearGradient>
	<path fill="url(#SVGID_4_)" d="M18.7,14.4c4.4,0,6.1-1.2,8.1-2.6c0.5-0.3,1-0.7,1.5-1.1c-3-2.6-6.9-4.2-11.1-4.4
		c-1,0.1-2,0.1-2.9,0.1c-0.1,0-0.1,0-0.2,0C9.7,7,5.8,9.2,2.9,12.4c3.9,1.1,9.2,2,15.5,2C18.5,14.4,18.6,14.4,18.7,14.4z"/>
	<path fill="#6C5A4D" d="M32.3,29.2c-1.7,2.5-4.5,6.1-10.5,8.6C19.9,38.6,18,39,16.3,39c-1.2,0-2.4-0.2-3.6-0.5
		c2.5,1.1,5.2,1.7,8.1,1.7c2.2,0,4.4-0.4,6.4-1c4-2.9,6.8-7.5,7.4-12.7C33.8,27.3,32.9,28.2,32.3,29.2z"/>
	<linearGradient id="SVGID_5_" gradientUnits="userSpaceOnUse" x1="27.537" y1="39.1564" x2="9.3389" y2="7.6362">
		<stop  offset="0" style="stop-color:#FFFFFF;stop-opacity:0.7"/>
		<stop  offset="1" style="stop-color:#FFFFFF;stop-opacity:0"/>
	</linearGradient>
	<path fill="url(#SVGID_5_)" d="M32.3,29.2c-1.7,2.5-4.5,6.1-10.5,8.6C19.9,38.6,18,39,16.3,39c-1.2,0-2.4-0.2-3.6-0.5
		c2.5,1.1,5.2,1.7,8.1,1.7c2.2,0,4.4-0.4,6.4-1c4-2.9,6.8-7.5,7.4-12.7C33.8,27.3,32.9,28.2,32.3,29.2z"/>
</g>
<g>
	<path fill="#AC6828" d="M66.9,31.2c0,1-0.8,1.9-1.8,1.9h-2.5v-6.2h2.5c0.8,0,1.5,0.7,1.5,1.6c0,0.4-0.2,0.9-0.5,1.1
		C66.6,30,66.9,30.5,66.9,31.2z M63.6,29.3h1.5c0,0,0,0,0,0c0.3,0,0.6-0.4,0.6-0.8c0-0.4-0.3-0.8-0.6-0.8h-1.5V29.3z M66,31.2
		c0-0.6-0.4-1.1-0.9-1.1c0,0,0,0,0,0h-1.5v2.3h1.5C65.6,32.3,66,31.8,66,31.2z"/>
	<path fill="#AC6828" d="M74,31.1l1.3,2h-1l-1.2-1.8h-1.4v1.8h-0.9v-1.8v-0.8v-2.9v-0.8h0.9h1.5c1.2,0,2.2,0.9,2.2,2.2
		C75.3,30,74.8,30.8,74,31.1z M71.7,30.5h1.5c0.7,0,1.3-0.6,1.3-1.4c0-0.8-0.6-1.4-1.3-1.4h-1.5V30.5z"/>
	<path fill="#AC6828" d="M84.9,30c0,1.8-1.4,3.2-3.1,3.2c-1.7,0-3.1-1.4-3.1-3.2s1.4-3.2,3.1-3.2C83.4,26.8,84.9,28.2,84.9,30z
		 M79.5,30c0,1.3,0.9,2.4,2.2,2.4c1.3,0,2.2-1.2,2.2-2.4c0-1.3-0.9-2.4-2.2-2.4C80.4,27.6,79.5,28.8,79.5,30z"/>
	<path fill="#AC6828" d="M93.9,33.1h-1.1l-3.3-4.9v4.9h-0.9v-6.2h1.1l3.3,4.9v-4.9h0.9V33.1z"/>
	<path fill="#AC6828" d="M102.4,27.9l-3.5,4.5h3.5v0.8h-4.5v-0.9l3.5-4.5h-3.5v-0.8h4.1h0.4V27.9z"/>
	<path fill="#AC6828" d="M110.7,32.3v0.8h-4.3v-6.2h4.1v0.8h-3.2v1.8h2.6v0.8h-2.6v2.1H110.7z"/>
	<path fill="#AC6828" d="M123.5,32c-0.3,0.7-1.1,1.1-2.2,1.1c-0.9,0-1.7-0.4-2.3-1l0.6-0.6c0.3,0.5,1,0.9,1.7,0.9
		c0.7,0,1.1-0.3,1.3-0.7c0.1-0.3,0-0.6,0-0.6c-0.2-0.5-0.7-0.6-1.3-0.8c-0.8-0.2-1.7-0.4-1.9-1.2c-0.2-0.4-0.1-0.9,0.1-1.3
		c0.5-0.9,1.7-0.9,1.8-0.9c0.9,0,1.7,0.4,2.3,1l-0.6,0.6c-0.3-0.5-1-0.9-1.7-0.9c0,0-0.7,0-1,0.5c-0.1,0.2-0.1,0.5-0.1,0.7
		c0.2,0.5,0.6,0.6,1.3,0.8c0.8,0.2,1.7,0.4,2,1.3C123.5,30.9,123.7,31.5,123.5,32z"/>
	<path fill="#AC6828" d="M132.5,32.2c-0.6,0.6-1.4,0.9-2.3,0.9c-1.7,0-3.1-1.4-3.1-3.2c0-1.8,1.4-3.2,3.1-3.2c0.9,0,1.7,0.3,2.3,1
		l-0.6,0.6c-0.4-0.5-1-0.8-1.7-0.8c-1.3,0-2.2,1.1-2.2,2.4c0,1.2,0.9,2.4,2.2,2.4c0.6,0,1.4-0.2,1.7-0.8L132.5,32.2z"/>
	<path fill="#AC6828" d="M141,26.9v3.8c0,1-0.4,2.5-2.5,2.5c-2.1,0-2.5-1.5-2.5-2.5v-3.8h0.9v3.8c0,0.4,0.1,1.8,1.6,1.8
		s1.6-1.4,1.6-1.8v-3.8H141z"/>
	<path fill="#AC6828" d="M148.6,32.3v0.8h-4v-6.2h0.9v5.4H148.6z"/>
	<path fill="#AC6828" d="M154.6,31.5h-1.5v1.6h-0.9v-6.2h2.4c1.2,0,2.2,1,2.2,2.3C156.8,30.4,155.8,31.5,154.6,31.5z M155.9,29.2
		c0-0.8-0.6-1.5-1.3-1.5h-1.5v3h1.5C155.3,30.7,155.9,30,155.9,29.2z"/>
	<path fill="#AC6828" d="M164.5,27.7h-1.9v5.4h-0.9v-5.4h-1.9v-0.8h4.7V27.7z"/>
	<path fill="#AC6828" d="M172.5,26.9v3.8c0,1-0.4,2.5-2.5,2.5s-2.5-1.5-2.5-2.5v-3.8h0.9v3.8c0,0.4,0.1,1.8,1.6,1.8s1.6-1.4,1.6-1.8
		v-3.8H172.5z"/>
	<path fill="#AC6828" d="M179.4,31.1l1.3,2h-1l-1.2-1.8h-1.4v1.8h-0.9v-1.8v-0.8v-2.9v-0.8h0.9h1.5c1.2,0,2.2,0.9,2.2,2.2
		C180.8,30,180.2,30.8,179.4,31.1z M177.1,30.5h1.5c0.7,0,1.3-0.6,1.3-1.4c0-0.8-0.6-1.4-1.3-1.4h-1.5V30.5z"/>
	<path fill="#AC6828" d="M188.8,32.3v0.8h-4.3v-6.2h4.1v0.8h-3.2v1.8h2.6v0.8h-2.6v2.1H188.8z"/>
	<path fill="#AC6828" d="M196.6,32c-0.3,0.7-1.1,1.1-2.2,1.1c-0.9,0-1.7-0.4-2.3-1l0.6-0.6c0.3,0.5,1,0.9,1.7,0.9
		c0.7,0,1.1-0.3,1.3-0.7c0.1-0.3,0-0.6,0-0.6c-0.2-0.5-0.7-0.6-1.3-0.8c-0.8-0.2-1.7-0.4-1.9-1.2c-0.2-0.4-0.1-0.9,0.1-1.3
		c0.5-0.9,1.7-0.9,1.8-0.9c0.9,0,1.7,0.4,2.3,1l-0.6,0.6c-0.3-0.5-1-0.9-1.7-0.9c0,0-0.7,0-1,0.5c-0.1,0.2-0.1,0.5-0.1,0.7
		c0.2,0.5,0.6,0.6,1.3,0.8c0.8,0.2,1.7,0.4,2,1.3C196.6,30.9,196.8,31.5,196.6,32z"/>
</g>
<g>
	<path fill="#5F4F43" d="M62.2,16.9h0.9c0.6,0,1-0.3,1.2-1.2L66,8.1c0.1-0.3,0.1-0.6,0.1-0.8c0-0.4-0.2-0.6-0.7-0.6h-1.2l0.4-1.8
		h8.9c1.1,0,1.9,0.2,2.6,0.6c1,0.6,1.7,1.6,1.7,2.6c0,1.2-0.7,2.4-2,3.1c-0.7,0.4-1.3,0.6-2.8,0.9c1.4,0.6,1.9,1.1,1.9,2.1
		c0,0.3-0.1,0.9-0.2,1.5c-0.1,0.3-0.1,0.5-0.1,0.7c0,0.4,0.2,0.7,0.6,0.7c0.6,0,1-0.5,1.3-2.1H78c-0.4,1.5-0.7,2.1-1.3,2.9
		c-0.7,0.8-1.6,1.2-2.6,1.2c-2,0-3.2-1-3.2-2.7c0-0.2,0-0.5,0-0.7c0.1-0.9,0.2-1.4,0.2-1.5c0-0.4-0.2-0.8-0.6-1.1
		c-0.4-0.3-0.8-0.4-1.7-0.4l-0.7,3.1c0,0.1,0,0.2,0,0.4c0,0.4,0.2,0.6,0.6,0.6h0.7l-0.4,1.9h-7.2L62.2,16.9z M70.5,11.1
		c1.9,0,3.2-1.1,3.2-2.6c0-1.2-0.8-1.9-2.1-1.9c-0.9,0-1.5,0.4-1.6,1.2l-0.7,3.4H70.5z"/>
	<path fill="#5F4F43" d="M78.4,9.9h4.8l-1.3,6c-0.1,0.4-0.1,0.7-0.1,0.8c0,0.2,0.2,0.4,0.3,0.4c0.2,0,0.5-0.2,0.6-0.4
		c0.3-0.4,0.7-1,1.2-1.8c0.3-0.5,0.9-1.4,1.3-1.9c0.9-1.1,1.5-1.5,1.5-1.5s-0.1-0.2-0.7,1c-0.3,0.5-0.9,2.2-1.2,2.8
		c-1,1.8-2,3.7-3.8,3.7c-1.4,0-2.3-0.8-2.3-1.9c0-0.2,0.1-0.8,0.2-1.3l0.7-3.3c0-0.2,0.1-0.5,0.1-0.6c0-0.2-0.2-0.4-0.6-0.4h-1
		L78.4,9.9z M84.4,6.1c0,1.2-0.9,2.2-2.1,2.2c-0.9,0-1.6-0.6-1.6-1.5c0-1.2,1-2.3,2.1-2.3C83.8,4.5,84.4,5.1,84.4,6.1z"/>
	<path fill="#5F4F43" d="M93.9,15.6c-0.9,2.5-2.3,3.6-4.5,3.6c-1.5,0-2.5-0.4-3.2-1.3c-0.7-0.8-1-1.8-1-2.8c0-1.4,0.7-3,1.8-4
		c1-0.9,2.7-1.5,4.1-1.5c1.7,0,3.1,1.2,3.1,2.6c0,1.3-0.9,2.3-2.1,2.3c-0.9,0-1.5-0.6-1.5-1.3c0-0.5,0.3-1,0.8-1.2
		c0.3-0.1,0.4-0.2,0.4-0.3c0-0.2-0.3-0.4-0.7-0.4c-0.8,0-1.5,0.6-2,1.7c-0.4,0.7-0.6,1.8-0.6,2.8c0,1,0.5,1.7,1.3,1.7
		c0.9,0,1.6-0.7,1.8-1.8H93.9z"/>
	<g>
		<path fill="#5F4F43" d="M108.4,11c-0.5,0.5-2.6,2.4-3.6,4.2c-0.6,1.2-0.9,1.8-1.4,1.8c-0.2,0-0.4-0.2-0.4-0.4c0-0.2,0-0.4,0.1-0.6
			l0.7-2.4c0.2-0.7,0.3-1.3,0.3-1.9c0-1.2-1.1-2.1-2.4-2.1c-1,0-1.6,0.3-3.2,1.7l1.5-6.5H95l-0.4,1.7l1.3,0c0.4,0,0.5,0.1,0.5,0.2
			c0,0.1,0,0.4-0.1,0.8l-2.4,11.2H97l0.8-3.6c0.2-1,0.5-1.7,0.9-2.2c0.4-0.6,1-1,1.5-1c0.4,0,0.7,0.3,0.7,0.7c0,0.1,0,0.3-0.1,0.5
			c-0.8,3.1-0.8,3.1-0.8,3.8c0,1.1,0.9,2,2.2,2c1.7,0,2.9-1.2,3.7-3.4c0.1-0.1,0.2-0.6,0.3-0.7c0.3-0.6,0.9-1.9,1.1-2.4
			c0.3-0.5,0.9-1.2,1-1.3C108.2,11.4,109.1,10.3,108.4,11z"/>
		<path fill="#5F4F43" d="M108,11.6c0.1-0.1,0.2-0.1,0.2-0.1S108.1,11.5,108,11.6z"/>
	</g>
	<path fill="#5F4F43" d="M114.4,9.8h3.1l-1.4,6.3c0,0.2-0.1,0.4-0.1,0.5c0,0.3,0.2,0.5,0.4,0.5c0.3,0,0.4-0.1,0.6-0.5
		c0.3-0.5,0.4-0.9,0.5-1.3h1.4c-0.5,1.4-0.8,2-1.4,2.7c-0.6,0.7-1.5,1.1-2.4,1.1c-1.1,0-1.6-0.4-2.3-1.5c-0.8,0.6-0.9,0.8-1.3,1
		c-0.5,0.3-1.2,0.5-1.9,0.5c-1.2,0-2.1-0.5-2.7-1.5c-0.4-0.6-0.5-1.3-0.5-2c0-2.9,2.6-6,5.1-6c0.5,0,1.2,0.2,1.5,0.4
		c0.4,0.2,0.6,0.5,1.1,1.3L114.4,9.8z M110.4,13c-0.4,1-0.8,2.3-0.8,3.2c0,0.8,0.6,1.4,1.3,1.4c0.7,0,1.3-0.4,1.8-1.3
		c0.6-1.1,0.9-2.4,0.9-3.5c0-0.9-0.5-1.5-1.3-1.5C111.6,11.3,110.9,11.9,110.4,13z"/>
	<path fill="#5F4F43" d="M119.6,9.9h4.8l-0.3,1.5c0.9-1,2-1.7,2.9-1.7c1.1,0,2,0.9,2,2.1c0,1.2-0.9,2.1-2,2.1
		c-0.8,0-1.4-0.6-1.4-1.3c0-0.6,0.2-0.8,1.1-1.2c-0.2-0.1-0.4-0.1-0.5-0.1c-0.7,0-1.6,0.7-2.1,1.6c-0.3,0.5-0.7,1.9-1.1,3.5
		c0,0.1-0.1,0.6-0.3,1.5l-0.2,0.9h-3.1l1.4-6.4c0-0.2,0.1-0.5,0.1-0.6c0-0.3-0.1-0.3-0.6-0.3h-1L119.6,9.9z"/>
	<path fill="#5F4F43" d="M136.8,7.2c0-0.1,0-0.2,0-0.4c0-0.2-0.2-0.3-0.7-0.3h-1.2l0.4-1.6h5.1l-2.3,10.6c-0.1,0.6-0.2,1-0.2,1.1
		c0,0.2,0.2,0.4,0.4,0.4c0.5,0,0.8-0.4,1.3-1.8h1.3c-0.3,1.3-0.6,2-1.3,2.8c-0.6,0.7-1.6,1.2-2.5,1.2c-1.1,0-1.6-0.4-2.2-1.5
		c-1.3,1.2-1.8,1.4-2.9,1.4c-1,0-1.8-0.3-2.3-1c-0.6-0.7-0.9-1.6-0.9-2.5c0-3.1,2.5-6,5-6c1,0,1.5,0.3,2.3,1.3L136.8,7.2z
		 M132.4,13.5c-0.3,0.8-0.5,1.9-0.5,2.5c0,0.8,0.5,1.4,1.3,1.4c0.6,0,1.2-0.5,1.6-1.2c0.4-1,0.9-2.8,0.9-3.6c0-0.7-0.5-1.3-1.2-1.3
		C133.5,11.3,132.9,12,132.4,13.5z"/>
	<path fill="#5F4F43" d="M150,16.9h0.3c0.7-0.1,1.1-0.4,1.9-1.8l6.3-10.2h4.1l1.5,11.2c0.1,0.5,0.2,0.7,0.6,0.7h0.7l-0.4,1.9h-7.2
		l0.4-1.9h1c0.5,0,0.9-0.3,0.9-0.8v-0.2l-0.1-1h-4.8l-0.6,1c-0.1,0.2-0.2,0.5-0.2,0.6c0,0.3,0.2,0.4,0.7,0.4h0.9l-0.4,1.9h-6
		L150,16.9z M159.8,13l-0.5-5l-3,5H159.8z"/>
	<path fill="#5F4F43" d="M171.6,16.9c0,1.2-1,2.2-2.2,2.2c-1.1,0-1.9-0.7-1.9-1.7c0-1.3,1-2.2,2.2-2.2
		C170.9,15.1,171.6,15.8,171.6,16.9z"/>
	<path fill="#5F4F43" d="M178.9,16.9h0.6c0.6,0,1-0.4,1.2-1.1l1.8-8.2c0.1-0.3,0.1-0.6,0.1-0.7c0-0.2-0.2-0.3-0.5-0.3h-1.2l0.4-1.8
		h6.7l1,7.3l4.3-7.3h6.8l-0.4,1.8H199c-0.7,0-0.9,0.2-1.2,1.1l-1.7,7.7c0,0.2-0.1,0.5-0.1,0.6c0,0.4,0.4,0.7,0.9,0.7h1l-0.4,1.9
		h-7.8l0.4-1.9h1c0.6,0,0.9-0.3,1-0.9l1.7-7.8l-6.2,10.5h-1.8l-1.3-9.9l-1.6,7c0,0.2-0.1,0.4-0.1,0.5c0,0.4,0.2,0.5,0.6,0.5h0.8
		l-0.3,1.9h-5.6L178.9,16.9z"/>
	<path fill="#5F4F43" d="M201.3,18.8l-0.5-5.9c0-0.6-0.1-0.9-0.1-1c0-0.2-0.1-0.3-0.2-0.4c0,0-0.1,0-0.2,0h-0.5H199l0.4-1.6h4.2
		l0.5,6.3l2.4-4.2c0.1-0.2,0.1-0.3,0.1-0.4c0-0.1-0.1-0.1-0.3-0.1h-1l0.4-1.6h4.3l-4.2,7.2c-0.4,0.6-0.9,1.7-1.6,3.1
		c-0.6,1.2-1,1.8-1.6,2.1c-0.5,0.3-1,0.4-1.6,0.4c-1.3,0-2.2-0.9-2.2-2c0-1,0.7-1.7,1.5-1.7c0.7,0,1.1,0.4,1.1,1
		c0,0.6-0.3,0.9-0.9,0.9c-0.2,0-0.2,0.1-0.2,0.2c0,0.2,0.3,0.4,0.7,0.4c0.5,0,0.9-0.2,1.2-0.7c0.1-0.2,0.1-0.2,0.7-1.8H201.3z"/>
	<path fill="#5F4F43" d="M212.5,14.9c-0.1,0.4-0.1,0.6-0.1,0.8c0,1,0.6,1.6,1.6,1.6c1,0,1.6-0.5,2.2-1.7h2.5
		c-1.2,2.6-2.5,3.5-5.1,3.5c-1.2,0-2.1-0.2-2.8-0.8c-1-0.7-1.6-2-1.6-3.2c0-3.1,2.6-5.7,5.7-5.7c2.5,0,4.1,1.5,4.1,3.9
		c0,0.5,0,0.8-0.2,1.6H212.5z M216,13.3c0.1-0.5,0.1-0.8,0.1-1c0-0.7-0.5-1.2-1.2-1.2c-0.9,0-1.7,0.9-2.2,2.2H216z"/>
	<path fill="#5F4F43" d="M219.9,9.9h4.8l-0.3,1.5c0.9-1,2-1.7,2.9-1.7c1.1,0,2,0.9,2,2.1c0,1.2-0.9,2.1-2,2.1
		c-0.8,0-1.4-0.6-1.4-1.3c0-0.6,0.2-0.8,1.1-1.2c-0.2-0.1-0.4-0.1-0.5-0.1c-0.7,0-1.6,0.7-2.1,1.6c-0.3,0.5-0.7,1.9-1.1,3.5
		c0,0.1-0.1,0.6-0.3,1.5l-0.2,0.9h-3.1l1.4-6.4c0-0.2,0.1-0.5,0.1-0.6c0-0.3-0.1-0.3-0.6-0.3h-1L219.9,9.9z"/>
</g>
</svg>
