<?xml version="1.0" encoding="UTF-8" standalone="no"?>
<svg width="210px" height="45px" viewBox="0 0 210 45" version="1.1" xmlns="http://www.w3.org/2000/svg" xmlns:xlink="http://www.w3.org/1999/xlink" style="background: #FFFFFF;">
    <!-- Generator: Sketch 39.1 (31720) - http://www.bohemiancoding.com/sketch -->
    <title>logo</title>
    <desc>Created with Sketch.</desc>
    <defs></defs>
    <g id="Page-1" stroke="none" stroke-width="1" fill="none" fill-rule="evenodd">
        <g id="logo">
            <g transform="translate(4.000000, 3.000000)" id="Group">
                <g>
                    <g transform="translate(0.000000, 28.000000)" id="Shape" fill="#AC6828">
                        <path d="M7.2,7.2 C7.2,8.8 6,10 4.4,10 L0.8,10 L0.8,0.7 L4.5,0.7 C5.8,0.7 6.8,1.8 6.8,3.1 C6.8,3.8 6.5,4.4 6.1,4.8 C6.7,5.4 7.2,6.2 7.2,7.2 L7.2,7.2 Z M2.1,4.4 L4.4,4.4 L4.4,4.4 C4.9,4.4 5.2,3.8 5.2,3.2 C5.2,2.5 4.8,2 4.3,2 L2.1,2 L2.1,4.4 L2.1,4.4 Z M5.8,7.2 C5.8,6.3 5.2,5.5 4.5,5.5 C4.5,5.5 4.5,5.5 4.4,5.5 L2.1,5.5 L2.1,8.9 L4.4,8.9 C5.2,8.9 5.8,8.2 5.8,7.2 L5.8,7.2 Z"></path>
                        <path d="M17.8,7.1 L19.8,10 L18.3,10 L16.5,7.3 L14.3,7.3 L14.3,10 L12.9,10 L12.9,7.3 L12.9,6.2 L12.9,1.9 L12.9,0.8 L14.3,0.8 L16.5,0.8 C18.3,0.8 19.8,2.2 19.8,4.1 C19.8,5.5 19,6.6 17.8,7.1 L17.8,7.1 Z M14.3,6.2 L16.5,6.2 C17.6,6.2 18.4,5.3 18.4,4 C18.4,2.7 17.5,1.8 16.5,1.8 L14.3,1.8 L14.3,6.2 L14.3,6.2 Z"></path>
                        <path d="M34,5.4 C34,8.1 31.9,10.2 29.3,10.2 C26.7,10.2 24.6,8.1 24.6,5.4 C24.6,2.7 26.7,0.6 29.3,0.6 C31.9,0.6 34,2.7 34,5.4 L34,5.4 Z M26,5.4 C26,7.3 27.4,9 29.3,9 C31.3,9 32.6,7.3 32.6,5.4 C32.6,3.5 31.2,1.8 29.3,1.8 C27.4,1.8 26,3.5 26,5.4 L26,5.4 Z"></path>
                        <polygon points="47.5 10.1 45.8 10.1 40.8 2.7 40.8 10.1 39.4 10.1 39.4 0.8 41.1 0.8 46.1 8.2 46.1 0.8 47.5 0.8"></polygon>
                        <polygon points="60.3 2.2 55 8.9 60.3 8.9 60.3 10 53.6 10 53.6 8.6 58.9 1.9 53.6 1.9 53.6 0.8 59.7 0.8 60.3 0.8"></polygon>
                        <polygon points="72.8 8.9 72.8 10 66.4 10 66.4 0.7 72.6 0.7 72.6 1.8 67.8 1.8 67.8 4.5 71.7 4.5 71.7 5.7 67.8 5.7 67.8 8.8 72.8 8.8"></polygon>
                        <path d="M91.9,8.5 C91.5,9.6 90.2,10.2 88.6,10.2 C87.3,10.2 86,9.6 85.2,8.7 L86.1,7.8 C86.5,8.6 87.6,9.1 88.6,9.1 C89.7,9.1 90.3,8.7 90.6,8.1 C90.8,7.6 90.6,7.1 90.6,7.1 C90.3,6.4 89.6,6.2 88.6,5.9 C87.4,5.6 86.1,5.3 85.7,4.1 C85.5,3.5 85.5,2.7 85.8,2.1 C86.5,0.7 88.3,0.7 88.6,0.7 C90,0.7 91.2,1.3 92,2.2 L91.1,3.1 C90.6,2.4 89.6,1.8 88.6,1.8 C88.6,1.8 87.5,1.8 87.1,2.6 C86.9,2.9 86.9,3.3 87,3.6 C87.2,4.3 88,4.4 88.9,4.7 C90.1,5.1 91.4,5.3 91.9,6.6 C92,6.7 92.3,7.6 91.9,8.5 L91.9,8.5 Z"></path>
                        <path d="M105.4,8.8 C104.5,9.7 103.3,10.2 102,10.2 C99.4,10.2 97.3,8.1 97.3,5.4 C97.3,2.7 99.4,0.6 102,0.6 C103.3,0.6 104.6,1.1 105.4,2 L104.5,2.9 C104,2.1 103,1.7 102,1.7 C100.1,1.7 98.7,3.4 98.7,5.3 C98.7,7 100,8.9 102,8.9 C102.9,8.9 104,8.6 104.5,7.7 L105.4,8.8 L105.4,8.8 Z"></path>
                        <path d="M118.2,0.8 L118.2,6.4 C118.2,7.9 117.6,10.2 114.5,10.2 C111.4,10.2 110.8,7.9 110.8,6.4 L110.8,0.8 L112.2,0.8 L112.2,6.4 C112.2,7 112.3,9 114.6,9 C116.8,9 116.9,6.9 116.9,6.4 L116.9,0.8 L118.2,0.8 L118.2,0.8 Z"></path>
                        <polygon points="129.6 8.9 129.6 10 123.5 10 123.5 0.7 124.9 0.7 124.9 8.8 129.6 8.8"></polygon>
                        <path d="M138.5,7.6 L136.3,7.6 L136.3,10.1 L134.9,10.1 L134.9,0.8 L138.5,0.8 C140.3,0.8 141.8,2.3 141.8,4.2 C141.8,6.1 140.3,7.6 138.5,7.6 L138.5,7.6 Z M140.4,4.2 C140.4,3 139.5,1.9 138.5,1.9 L136.3,1.9 L136.3,6.5 L138.5,6.5 C139.6,6.5 140.4,5.4 140.4,4.2 L140.4,4.2 Z"></path>
                        <polygon points="153.4 1.9 150.5 1.9 150.5 10 149.1 10 149.1 1.9 146.2 1.9 146.2 0.8 153.3 0.8 153.3 1.9"></polygon>
                        <path d="M165.4,0.8 L165.4,6.4 C165.4,7.9 164.8,10.2 161.7,10.2 C158.6,10.2 158,7.9 158,6.4 L158,0.8 L159.4,0.8 L159.4,6.4 C159.4,7 159.5,9 161.8,9 C164,9 164.1,6.9 164.1,6.4 L164.1,0.8 L165.4,0.8 L165.4,0.8 Z"></path>
                        <path d="M175.7,7.1 L177.7,10 L176.2,10 L174.4,7.3 L172.2,7.3 L172.2,10 L170.8,10 L170.8,7.3 L170.8,6.2 L170.8,1.9 L170.8,0.8 L172.2,0.8 L174.4,0.8 C176.2,0.8 177.7,2.2 177.7,4.1 C177.7,5.5 176.9,6.6 175.7,7.1 L175.7,7.1 Z M172.2,6.2 L174.4,6.2 C175.5,6.2 176.3,5.3 176.3,4 C176.3,2.7 175.4,1.8 174.4,1.8 L172.2,1.8 L172.2,6.2 L172.2,6.2 Z"></path>
                        <polygon points="189.7 8.9 189.7 10 183.3 10 183.3 0.7 189.5 0.7 189.5 1.8 184.7 1.8 184.7 4.5 188.6 4.5 188.6 5.7 184.7 5.7 184.7 8.8 189.7 8.8"></polygon>
                        <path d="M201.4,8.5 C201,9.6 199.7,10.2 198.1,10.2 C196.8,10.2 195.5,9.6 194.7,8.7 L195.6,7.8 C196,8.6 197.1,9.1 198.1,9.1 C199.2,9.1 199.8,8.7 200.1,8.1 C200.3,7.6 200.1,7.1 200.1,7.1 C199.8,6.4 199.1,6.2 198.1,5.9 C196.9,5.6 195.6,5.3 195.2,4.1 C195,3.5 195,2.7 195.3,2.1 C196,0.7 197.8,0.7 198.1,0.7 C199.5,0.7 200.7,1.3 201.5,2.2 L200.6,3.1 C200.1,2.4 199.1,1.8 198.1,1.8 C198.1,1.8 197,1.8 196.6,2.6 C196.4,2.9 196.4,3.3 196.5,3.6 C196.7,4.3 197.5,4.4 198.4,4.7 C199.6,5.1 200.9,5.3 201.4,6.6 C201.5,6.7 201.7,7.6 201.4,8.5 L201.4,8.5 Z"></path>
                    </g>
                    <g id="Shape" fill="#5F4F43">
                        <path d="M1.3,15 L2.4,15 C3.2,15 3.5,14.6 3.8,13.6 L5.8,4.5 C5.9,4.1 5.9,3.8 5.9,3.5 C5.8,3 5.6,2.8 5,2.8 L3.5,2.8 L4,0.6 L14.7,0.6 C16,0.6 17,0.8 17.8,1.3 C19,2 19.8,3.2 19.8,4.4 C19.8,5.8 18.9,7.3 17.5,8.1 C16.7,8.6 15.9,8.8 14.1,9.2 C15.8,9.9 16.4,10.6 16.4,11.7 C16.4,12 16.3,12.7 16.2,13.5 C16.1,13.8 16.1,14.1 16.1,14.3 C16.1,14.7 16.4,15.1 16.8,15.1 C17.5,15.1 17.9,14.5 18.4,12.6 L20.2,12.6 C19.7,14.4 19.4,15.1 18.6,16.1 C17.8,17 16.7,17.5 15.5,17.5 C13.1,17.5 11.7,16.3 11.7,14.3 L11.7,13.5 C11.8,12.4 11.9,11.9 11.9,11.7 C11.9,11.2 11.7,10.7 11.2,10.4 C10.7,10.1 10.2,10 9.2,9.9 L8.4,13.7 L8.4,14.1 C8.4,14.5 8.7,14.8 9.1,14.8 L10,14.8 L9.5,17 L0.8,17 L1.3,15 L1.3,15 Z M11.1,8.1 C13.3,8.1 15,6.8 15,4.9 C15,3.5 14,2.6 12.4,2.6 C11.3,2.6 10.7,3 10.5,4 L9.6,8 L11.1,8 L11.1,8.1 Z"></path>
                        <path d="M20.6,6.6 L26.3,6.6 L24.8,13.8 C24.7,14.3 24.6,14.6 24.6,14.8 C24.6,15 24.8,15.2 25,15.2 C25.2,15.2 25.6,15 25.8,14.8 C26.1,14.4 26.7,13.6 27.3,12.6 C27.7,12 28.4,10.9 28.9,10.4 C30,9.1 30.7,8.6 30.7,8.6 C30.7,8.6 30.6,8.4 29.8,9.8 C29.5,10.4 28.7,12.4 28.3,13.1 C27.1,15.3 25.9,17.5 23.7,17.5 C22.1,17.5 20.9,16.5 20.9,15.2 C20.9,14.9 21,14.3 21.1,13.6 L22,9.6 C22.1,9.3 22.1,9 22.1,8.9 C22.1,8.6 21.9,8.5 21.4,8.5 L20.2,8.5 L20.6,6.6 L20.6,6.6 Z M27.8,2 C27.8,3.4 26.7,4.6 25.3,4.6 C24.2,4.6 23.4,3.9 23.4,2.9 C23.4,1.5 24.6,0.2 25.9,0.2 C27.1,0.1 27.8,0.8 27.8,2 L27.8,2 Z"></path>
                        <path d="M39.2,13.4 C38.2,16.4 36.5,17.7 33.8,17.7 C32,17.7 30.8,17.2 30,16.1 C29.2,15.1 28.8,13.9 28.8,12.7 C28.8,11 29.7,9.1 31,7.9 C32.2,6.8 34.2,6.1 36,6.1 C38,6.1 39.7,7.5 39.7,9.2 C39.7,10.8 38.6,12 37.1,12 C36,12 35.3,11.3 35.3,10.4 C35.3,9.8 35.7,9.3 36.2,9 C36.6,8.9 36.7,8.8 36.7,8.6 C36.7,8.3 36.4,8.1 35.9,8.1 C34.9,8.1 34.1,8.8 33.5,10.2 C33.1,11.1 32.8,12.4 32.8,13.5 C32.8,14.7 33.4,15.5 34.4,15.5 C35.4,15.5 36.3,14.6 36.6,13.3 L39.2,13.3 L39.2,13.4 Z"></path>
                        <g transform="translate(39.000000, 0.000000)">
                            <path d="M17.7,7.9 C17.1,8.5 14.6,10.8 13.4,12.9 C12.7,14.3 12.4,15.1 11.8,15.1 C11.5,15.1 11.3,14.9 11.3,14.6 C11.3,14.4 11.3,14.2 11.4,13.9 L12.2,11 C12.5,10.2 12.6,9.4 12.6,8.8 C12.6,7.4 11.3,6.3 9.7,6.3 C8.5,6.3 7.8,6.7 5.9,8.3 L7.7,0.6 L1.6,0.6 L1.2,2.6 L2.7,2.6 C3.1,2.6 3.3,2.7 3.3,2.9 C3.3,3 3.3,3.4 3.1,3.9 L0.2,17.3 L4,17.3 L4.9,13 C5.2,11.8 5.5,11 5.9,10.4 C6.4,9.7 7.1,9.3 7.7,9.3 C8.2,9.3 8.6,9.7 8.6,10.1 C8.6,10.2 8.6,10.5 8.5,10.7 C7.6,14.4 7.6,14.4 7.6,15.3 C7.6,16.7 8.7,17.7 10.2,17.7 C12.2,17.7 13.7,16.3 14.7,13.7 C14.8,13.6 15,13 15.1,12.8 C15.5,12.1 16.2,10.5 16.5,9.9 C16.8,9.3 17.6,8.4 17.7,8.3 C17.4,8.4 18.5,7.1 17.7,7.9 L17.7,7.9 Z"></path>
                            <path d="M17.1,8.7 C17.2,8.6 17.3,8.6 17.3,8.6 C17.3,8.6 17.3,8.5 17.1,8.7 L17.1,8.7 Z"></path>
                        </g>
                        <path d="M63.8,6.5 L67.5,6.5 L65.9,14.1 C65.9,14.3 65.8,14.6 65.8,14.7 C65.8,15 66,15.2 66.3,15.2 C66.6,15.2 66.8,15.1 67,14.6 C67.3,14 67.5,13.6 67.6,13 L69.3,13 C68.8,14.6 68.4,15.4 67.6,16.2 C66.9,17 65.8,17.5 64.7,17.5 C63.4,17.5 62.7,17.1 61.9,15.8 C61,16.5 60.8,16.7 60.4,16.9 C59.8,17.2 58.9,17.5 58.1,17.5 C56.6,17.5 55.6,16.9 54.9,15.7 C54.5,15 54.3,14.1 54.3,13.3 C54.3,9.8 57.4,6.2 60.4,6.2 C61,6.2 61.8,6.4 62.2,6.6 C62.6,6.8 63,7.2 63.5,8.2 L63.8,6.5 L63.8,6.5 Z M59,10.3 C58.5,11.5 58.1,13.1 58.1,14.1 C58.1,15 58.8,15.7 59.7,15.7 C60.5,15.7 61.3,15.2 61.8,14.2 C62.5,12.9 62.9,11.3 62.9,10 C62.9,8.9 62.4,8.3 61.4,8.3 C60.4,8.3 59.6,9 59,10.3 L59,10.3 Z"></path>
                        <path d="M70,6.6 L75.8,6.6 L75.4,8.4 C76.4,7.2 77.7,6.4 78.8,6.4 C80.1,6.4 81.2,7.5 81.2,8.9 C81.2,10.3 80.2,11.4 78.8,11.4 C77.8,11.4 77.1,10.7 77.1,9.9 C77.1,9.2 77.4,8.9 78.4,8.5 C78.1,8.4 77.9,8.4 77.8,8.4 C77,8.4 75.9,9.2 75.3,10.3 C74.9,10.9 74.4,12.6 74,14.5 C74,14.6 73.9,15.2 73.6,16.2 L73.4,17.3 L69.6,17.3 L71.3,9.7 C71.4,9.5 71.4,9.2 71.4,9 C71.4,8.7 71.3,8.6 70.7,8.6 L69.5,8.6 L70,6.6 L70,6.6 Z"></path>
                        <path d="M90.7,3.4 L90.7,3 C90.7,2.8 90.5,2.7 89.8,2.7 L88.4,2.7 L88.8,0.7 L95,0.7 L92.2,13.5 C92.1,14.2 92,14.7 92,14.8 C92,15.1 92.2,15.3 92.5,15.3 C93.1,15.3 93.4,14.8 94,13.2 L95.6,13.2 C95.2,14.8 94.8,15.6 94,16.5 C93.2,17.4 92.1,17.9 91,17.9 C89.7,17.9 89,17.5 88.3,16.1 C86.7,17.5 86.1,17.8 84.9,17.8 C83.7,17.8 82.8,17.4 82.1,16.6 C81.4,15.8 81,14.7 81,13.6 C81,9.9 84,6.4 87,6.4 C88.2,6.4 88.8,6.8 89.7,8 L90.7,3.4 L90.7,3.4 Z M85.4,10.9 C85.1,11.9 84.8,13.2 84.8,13.9 C84.8,14.9 85.4,15.6 86.3,15.6 C87.1,15.6 87.8,15.1 88.2,14.2 C88.7,13 89.2,10.8 89.2,9.9 C89.2,9 88.6,8.4 87.8,8.4 C86.7,8.3 86,9.2 85.4,10.9 L85.4,10.9 Z"></path>
                        <path d="M106.4,15 L106.8,15 C107.7,14.9 108.1,14.5 109.1,12.9 L116.7,0.7 L121.7,0.7 L123.5,14.2 C123.6,14.8 123.8,15 124.3,15.1 L125.1,15.1 L124.6,17.3 L115.9,17.3 L116.4,15.1 L117.6,15.1 C118.2,15.1 118.6,14.8 118.7,14.2 L118.7,13.9 L118.5,12.7 L112.7,12.7 L112,13.8 C111.8,14.1 111.7,14.3 111.7,14.6 C111.7,14.9 111.9,15.1 112.5,15.1 L113.6,15.1 L113.1,17.3 L105.9,17.3 L106.4,15 L106.4,15 Z M118.2,10.3 L117.6,4.3 L114,10.3 L118.2,10.3 L118.2,10.3 Z"></path>
                        <path d="M132.4,15 C132.4,16.5 131.2,17.6 129.8,17.6 C128.5,17.6 127.5,16.7 127.5,15.5 C127.5,14 128.7,12.8 130.2,12.8 C131.5,12.8 132.4,13.7 132.4,15 L132.4,15 Z"></path>
                        <path d="M141.1,15 L141.8,15 C142.5,15 143,14.6 143.2,13.7 L145.4,3.9 C145.5,3.5 145.5,3.2 145.5,3.1 C145.5,2.9 145.3,2.8 145,2.8 L143.6,2.8 L144.1,0.6 L152.1,0.6 L153.3,9.4 L158.5,0.6 L166.7,0.6 L166.3,2.8 L165.3,2.8 C164.4,2.8 164.2,3 163.9,4.1 L161.9,13.3 C161.8,13.6 161.8,13.9 161.8,14 C161.8,14.5 162.2,14.9 162.8,14.9 L164,14.9 L163.6,17.1 L154.2,17.1 L154.7,14.9 L155.9,14.9 C156.6,14.9 157,14.6 157.1,13.9 L159.1,4.6 L151.7,17.2 L149.6,17.2 L148,5.3 L146.1,13.7 C146.1,13.9 146,14.1 146,14.3 C146,14.7 146.3,14.9 146.8,14.9 L147.8,14.9 L147.4,17.1 L140.7,17.1 L141.1,15 L141.1,15 Z"></path>
                        <path d="M168,17.2 L167.4,10.2 C167.4,9.5 167.3,9.1 167.3,9 C167.2,8.7 167.2,8.6 167,8.6 L166.8,8.6 L166.2,8.6 L165.3,8.6 L165.7,6.6 L170.8,6.6 L171.3,14.2 L174.2,9.2 C174.3,9 174.4,8.8 174.4,8.7 C174.4,8.6 174.3,8.6 174,8.6 L172.8,8.6 L173.3,6.6 L178.5,6.6 L173.4,15.2 C173,15.9 172.3,17.3 171.5,18.9 C170.8,20.3 170.3,21 169.6,21.4 C169,21.7 168.4,21.9 167.7,21.9 C166.2,21.9 165,20.9 165,19.5 C165,18.4 165.8,17.4 166.8,17.4 C167.6,17.4 168.1,17.8 168.1,18.5 C168.1,19.2 167.8,19.6 167,19.6 C166.8,19.6 166.7,19.7 166.7,19.8 C166.7,20 167.1,20.2 167.5,20.2 C168.1,20.2 168.6,19.9 168.9,19.3 C169.1,19 169.1,19 169.8,17.2 L168,17.2 L168,17.2 Z"></path>
                        <path d="M181.4,12.6 C181.3,13.1 181.3,13.3 181.3,13.6 C181.3,14.8 182,15.5 183.2,15.5 C184.3,15.5 185.1,15 185.9,13.5 L188.9,13.5 C187.5,16.6 185.9,17.7 182.8,17.7 C181.4,17.7 180.3,17.4 179.5,16.8 C178.3,15.9 177.6,14.5 177.6,13 C177.6,9.2 180.7,6.2 184.4,6.2 C187.4,6.2 189.3,7.9 189.3,10.8 C189.3,11.4 189.2,11.8 189.1,12.7 L181.4,12.7 L181.4,12.6 Z M185.7,10.7 C185.8,10.1 185.8,9.8 185.8,9.5 C185.8,8.6 185.3,8 184.4,8 C183.4,8 182.4,9 181.8,10.6 L185.7,10.6 L185.7,10.7 Z"></path>
                        <path d="M190.3,6.6 L196.1,6.6 L195.7,8.4 C196.7,7.2 198,6.4 199.1,6.4 C200.4,6.4 201.5,7.5 201.5,8.9 C201.5,10.3 200.5,11.4 199.1,11.4 C198.1,11.4 197.4,10.7 197.4,9.9 C197.4,9.2 197.7,8.9 198.7,8.5 C198.4,8.4 198.2,8.4 198.1,8.4 C197.3,8.4 196.2,9.2 195.6,10.3 C195.2,10.9 194.7,12.6 194.3,14.5 C194.3,14.6 194.2,15.2 193.9,16.2 L193.7,17.3 L190,17.3 L191.7,9.7 C191.8,9.5 191.8,9.2 191.8,9 C191.8,8.7 191.7,8.6 191.1,8.6 L189.9,8.6 L190.3,6.6 L190.3,6.6 Z"></path>
                    </g>
                </g>
            </g>
        </g>
    </g>
</svg>